# xmcd
#
# Track frame offsets:
#	150
#	11787
#	23454
#	42830
#	53477
#	65310
#	78731
#	110780
#	122497
#	133728
#	168272
#	184245
#	202334
#
# Disc length: 2912
#
# Revision: 2
# Processed by: cddbd v1.5.1PL0 Copyright (c) Steve Scherf et al.
# Submitted via: ExactAudioCopy v0.95a3
# Normalized: r0:TDELIM( - );r1:TSWAP
#
DISCID=b10b5e0d
DTITLE=Various Artist - Rockin' Country Disc 2
DYEAR=2002
DGENRE=Country
TTITLE0=Rick Nelson - That's All Right Mama
TTITLE1=Rosanne Cash - I Don't Want To Spoil The Party
TTITLE2=Wet Willie - Let It Shine
TTITLE3=Kris Kristofferson - Help Me Make It Through The Night
TTITLE4=Sleepy Labeef - You Can't Catch Me
TTITLE5=Waylon Jennings - Wrong
TTITLE6=Molly Hatchet - Dreams I'll Never See
TTITLE7=Johnny Paycheck - Take This Job and Shove It
TTITLE8=Roy Orbison' - Blue Bayou
TTITLE9=Loggins and Messina - Angry Eyes
TTITLE10=Gibson/Miller Band - High Rollin'
TTITLE11=Barefoot Jerry - Two Mile Pike
TTITLE12=The Charlie Daniels Band - The Devil Went Down To Georgia
EXTD=
EXTT0=
EXTT1=
EXTT2=
EXTT3=
EXTT4=
EXTT5=
EXTT6=
EXTT7=
EXTT8=
EXTT9=
EXTT10=
EXTT11=
EXTT12=
PLAYORDER=
